######## ######## ######## ##          ######## ########  ######## ######## 
##       ##       ##       ##          ##       ##     ## ##       ##       
##       ##       ##       ##          ##       ##     ## ##       ##       
######   ######   ######   ##          ######   ########  ######   ######   
##       ##       ##       ##          ##       ##   ##   ##       ##       
##       ##       ##       ##          ##       ##    ##  ##       ##       
##       ######## ######## ########    ##       ##     ## ######## ######## 

Genre:Drama | Music 
Language:English
IMDb: 
http://www.imdb.com/title/tt1555064/
Source:720p.BluRay.x264-Countrystrong

Format : MPEG-4
Format profile : Base Media
Codec ID : isom
File size : 2.78 GiB
Duration : 1h 57mn
Overall bit rate : 3 393 Kbps

Video
Format profile : High@L4.1
Format settings, CABAC : Yes
Format settings, ReFrames : 3 frames
Codec ID : avc1
Codec ID/Info : Advanced Video Coding
Duration : 1h 57mn
Bit rate mode : Variable
Bit rate : 3 000 Kbps
Maximum bit rate : 13.1 Mbps
Width : 1 280 pixels
Height : 528 pixels
Display aspect ratio : 2.40:1
Frame rate mode : Constant
Frame rate : 23.976 fps
Color space : YUV
Chroma subsampling : 4:2:0
Bit depth : 8 bits
Scan type : Progressive
Bits/(Pixel*Frame) : 0.185
Stream size : 2.42 GiB (87%)
Writing library : x264 

Audio
ID : 2
Format : AAC
Format/Info : Advanced Audio Codec
Format version : Version 4
Format profile : LC
Format settings, SBR : No
Codec ID : 40
Duration : 1h 57mn
Bit rate mode : Variable
Bit rate : 430 Kbps
Maximum bit rate : 516 Kbps
Channel(s) : 6 channels
Channel positions : Front: L C R, Side: L R, LFE
Sampling rate : 48.0 KHz
Stream size : 360 MiB (13%)


Plot:
A drama centered on a rising country-music songwriter (Hedlund) who sparks with a fallen star (Paltrow)..


Greets:

INK,CRYS,IMAGINE,LKRG,FXG,3Li,FLAWL3SS,TA,iLLUSiON,ViSiON,DTRG SAFCuk009,LU,TheFalcon007,MYSTiC,PrisM,Noir,WBZ,LAP,Rx,Kingdom,SAFCuk009+Fabreezy,HDLiTE,TWiZTED,ExtraTorrentRG.ELEKTRI4KA,MAGNAT,CM8
And to all the other p2p grps past and present







================================== 
http://thepiratebay.org/user/hiest
==================================







Screen Shots:
 
http://www.pix2links.com/images/39655470789636581178.png
 
http://www.pix2links.com/images/32802702266881781936.png
 
http://www.pix2links.com/images/39096718761786345220.png
 
http://www.pix2links.com/images/51479274332810675371.png
 
http://www.pix2links.com/images/96232636219006525139.png

######## ######## ######## ##          ######## ########  ######## ######## 
##       ##       ##       ##          ##       ##     ## ##       ##       
##       ##       ##       ##          ##       ##     ## ##       ##       
######   ######   ######   ##          ######   ########  ######   ######   
##       ##       ##       ##          ##       ##   ##   ##       ##       
##       ##       ##       ##          ##       ##    ##  ##       ##       
##       ######## ######## ########    ##       ##     ## ######## ######## 